<svg xmlns="http://www.w3.org/2000/svg" xmlns:xlink="http://www.w3.org/1999/xlink" width="500" zoomAndPan="magnify" viewBox="0 0 375 374.999991" height="500" preserveAspectRatio="xMidYMid meet" version="1.0"><defs><g/></defs><g fill="#000000" fill-opacity="1"><g transform="translate(125.451529, 146.870001)"><g><path d="M -2.9375 -6.34375 L -0.453125 -9.71875 L 1.1875 -8.5 L -1.296875 -5.125 L 2 -2.703125 L 0.71875 -0.96875 L -7.640625 -7.125 L -3.578125 -12.640625 L -1.921875 -11.421875 L -4.703125 -7.640625 Z M -2.9375 -6.34375 "/></g></g></g><g fill="#000000" fill-opacity="1"><g transform="translate(135.545262, 134.470896)"><g><path d="M 6.953125 -6 L 5.140625 -4.4375 L 1.109375 -5.859375 L 0.125 -5 L 2.546875 -2.1875 L 0.90625 -0.78125 L -5.875 -8.640625 L -2.765625 -11.3125 C -2.253906 -11.757812 -1.707031 -12.070312 -1.125 -12.25 C -0.539062 -12.425781 0.03125 -12.4375 0.59375 -12.28125 C 1.164062 -12.132812 1.691406 -11.785156 2.171875 -11.234375 C 3.148438 -10.085938 3.273438 -8.851562 2.546875 -7.53125 Z M 0.171875 -7.671875 C 0.367188 -7.835938 0.535156 -8.039062 0.671875 -8.28125 C 0.816406 -8.519531 0.882812 -8.765625 0.875 -9.015625 C 0.863281 -9.273438 0.753906 -9.53125 0.546875 -9.78125 C 0.328125 -10.03125 0.09375 -10.171875 -0.15625 -10.203125 C -0.40625 -10.234375 -0.648438 -10.191406 -0.890625 -10.078125 C -1.140625 -9.972656 -1.367188 -9.832031 -1.578125 -9.65625 L -2.90625 -8.5 L -1.171875 -6.5 Z M 0.171875 -7.671875 "/></g></g></g><g fill="#000000" fill-opacity="1"><g transform="translate(148.894257, 123.964766)"><g><path d="M -1.828125 -4.890625 C -2.160156 -5.546875 -2.34375 -6.226562 -2.375 -6.9375 C -2.414062 -7.644531 -2.328125 -8.332031 -2.109375 -9 C -1.890625 -9.664062 -1.546875 -10.265625 -1.078125 -10.796875 C -0.609375 -11.328125 -0.046875 -11.757812 0.609375 -12.09375 C 1.273438 -12.425781 1.957031 -12.617188 2.65625 -12.671875 C 3.351562 -12.722656 4.03125 -12.640625 4.6875 -12.421875 C 5.34375 -12.210938 5.941406 -11.882812 6.484375 -11.4375 C 7.023438 -10.988281 7.457031 -10.429688 7.78125 -9.765625 C 8.125 -9.097656 8.3125 -8.40625 8.34375 -7.6875 C 8.382812 -6.976562 8.296875 -6.289062 8.078125 -5.625 C 7.859375 -4.96875 7.515625 -4.367188 7.046875 -3.828125 C 6.585938 -3.296875 6.023438 -2.863281 5.359375 -2.53125 C 4.703125 -2.195312 4.019531 -2.003906 3.3125 -1.953125 C 2.613281 -1.910156 1.9375 -1.992188 1.28125 -2.203125 C 0.625 -2.410156 0.03125 -2.738281 -0.5 -3.1875 C -1.039062 -3.632812 -1.484375 -4.203125 -1.828125 -4.890625 Z M 0.140625 -5.890625 C 0.398438 -5.367188 0.769531 -4.945312 1.25 -4.625 C 1.726562 -4.300781 2.25 -4.113281 2.8125 -4.0625 C 3.382812 -4.019531 3.9375 -4.132812 4.46875 -4.40625 C 5 -4.664062 5.410156 -5.035156 5.703125 -5.515625 C 6.003906 -6.003906 6.164062 -6.535156 6.1875 -7.109375 C 6.21875 -7.679688 6.101562 -8.226562 5.84375 -8.75 C 5.570312 -9.28125 5.195312 -9.703125 4.71875 -10.015625 C 4.25 -10.328125 3.734375 -10.503906 3.171875 -10.546875 C 2.609375 -10.597656 2.0625 -10.492188 1.53125 -10.234375 C 1 -9.960938 0.582031 -9.582031 0.28125 -9.09375 C -0.0195312 -8.613281 -0.1875 -8.09375 -0.21875 -7.53125 C -0.25 -6.96875 -0.128906 -6.421875 0.140625 -5.890625 Z M 0.140625 -5.890625 "/></g></g></g><g fill="#000000" fill-opacity="1"><g transform="translate(166.407643, 116.227815)"><g><path d="M 1.765625 -7.6875 L 3.25 -0.6875 L 1.171875 -0.25 L -0.984375 -10.40625 L 1.421875 -10.921875 L 7.234375 -5.21875 L 5.828125 -11.84375 L 7.90625 -12.296875 L 10.0625 -2.140625 L 7.921875 -1.6875 Z M 1.765625 -7.6875 "/></g></g></g><g fill="#000000" fill-opacity="1"><g transform="translate(184.993902, 113.330115)"><g><path d="M 3.390625 0.09375 L 3.625 -8.203125 L 0.515625 -8.28125 L 0.578125 -10.359375 L 8.9375 -10.125 L 8.875 -8.046875 L 5.765625 -8.140625 L 5.53125 0.15625 Z M 3.390625 0.09375 "/></g></g></g><g fill="#000000" fill-opacity="1"><g transform="translate(201.326649, 114.703733)"><g><path d="M 6.296875 -3.984375 L 5.828125 -1.984375 L 1.578125 -3 L 2.046875 -5 Z M 6.296875 -3.984375 "/></g></g></g><g fill="#000000" fill-opacity="1"><g transform="translate(214.371863, 118.423012)"><g><path d="M 5.453125 -8.90625 L 11.609375 -6.046875 L 10.765625 -4.21875 L 6.53125 -6.171875 L 5.640625 -4.265625 L 9.4375 -2.515625 L 8.59375 -0.6875 L 4.796875 -2.4375 L 3.859375 -0.40625 L 8.125 1.5625 L 7.28125 3.375 L 1.09375 0.5 Z M 5.453125 -8.90625 "/></g></g></g><g fill="#000000" fill-opacity="1"><g transform="translate(228.685586, 125.848778)"><g><path d="M 7.0625 -3.546875 L 2.609375 2.0625 L 0.9375 0.75 L 7.390625 -7.375 L 9.3125 -5.84375 L 8.640625 2.25 L 12.84375 -3.046875 L 14.5 -1.734375 L 8.046875 6.390625 L 6.34375 5.03125 Z M 7.0625 -3.546875 "/></g></g></g><g fill="#000000" fill-opacity="1"><g transform="translate(242.767655, 138.249708)"><g><path d="M 10.34375 5.015625 C 9.53125 5.628906 8.664062 5.984375 7.75 6.078125 C 6.84375 6.179688 5.945312 6.015625 5.0625 5.578125 C 4.175781 5.140625 3.363281 4.429688 2.625 3.453125 L 0.734375 0.953125 L 9 -5.3125 L 10.921875 -2.765625 C 11.648438 -1.804688 12.117188 -0.859375 12.328125 0.078125 C 12.535156 1.023438 12.472656 1.914062 12.140625 2.75 C 11.816406 3.59375 11.21875 4.347656 10.34375 5.015625 Z M 9 3.265625 C 9.550781 2.847656 9.914062 2.375 10.09375 1.84375 C 10.28125 1.3125 10.300781 0.753906 10.15625 0.171875 C 10.007812 -0.410156 9.734375 -0.972656 9.328125 -1.515625 L 8.671875 -2.375 L 3.65625 1.4375 L 4.296875 2.28125 C 4.722656 2.851562 5.195312 3.28125 5.71875 3.5625 C 6.25 3.851562 6.789062 3.976562 7.34375 3.9375 C 7.90625 3.894531 8.457031 3.671875 9 3.265625 Z M 9 3.265625 "/></g></g></g><g fill="#000000" fill-opacity="1"><g transform="translate(117.670234, 234.095772)"><g><path d="M 10.375 4.921875 C 9.570312 5.546875 8.710938 5.910156 7.796875 6.015625 C 6.890625 6.128906 5.992188 5.96875 5.109375 5.53125 C 4.222656 5.101562 3.40625 4.40625 2.65625 3.4375 L 0.734375 0.953125 L 8.9375 -5.390625 L 10.890625 -2.875 C 11.628906 -1.914062 12.101562 -0.96875 12.3125 -0.03125 C 12.53125 0.90625 12.476562 1.796875 12.15625 2.640625 C 11.832031 3.492188 11.238281 4.253906 10.375 4.921875 Z M 9.03125 3.171875 C 9.582031 2.753906 9.941406 2.273438 10.109375 1.734375 C 10.285156 1.203125 10.300781 0.644531 10.15625 0.0625 C 10.007812 -0.507812 9.726562 -1.0625 9.3125 -1.59375 L 8.65625 -2.453125 L 3.671875 1.40625 L 4.3125 2.234375 C 4.75 2.804688 5.226562 3.234375 5.75 3.515625 C 6.28125 3.804688 6.828125 3.925781 7.390625 3.875 C 7.953125 3.820312 8.5 3.585938 9.03125 3.171875 Z M 9.03125 3.171875 "/></g></g></g><g fill="#000000" fill-opacity="1"><g transform="translate(131.108233, 249.443628)"><g><path d="M 7.453125 -7.328125 L 12.734375 -3.046875 L 11.46875 -1.46875 L 7.84375 -4.40625 L 6.515625 -2.765625 L 9.765625 -0.140625 L 8.5 1.421875 L 5.25 -1.203125 L 3.84375 0.53125 L 7.5 3.484375 L 6.25 5.046875 L 0.9375 0.75 Z M 7.453125 -7.328125 "/></g></g></g><g fill="#000000" fill-opacity="1"><g transform="translate(145.993961, 260.172369)"><g><path d="M 4.6875 -9.25 L 6.765625 -8.25 L 5.765625 0.03125 L 11.625 -5.90625 L 13.671875 -4.921875 L 5.78125 2.796875 L 3.5625 1.71875 Z M 4.6875 -9.25 "/></g></g></g><g fill="#000000" fill-opacity="1"><g transform="translate(164.436951, 267.745138)"><g><path d="M 3.4375 -9.859375 L 10.078125 -8.375 L 9.640625 -6.40625 L 5.078125 -7.4375 L 4.609375 -5.375 L 8.6875 -4.453125 L 8.25 -2.484375 L 4.171875 -3.40625 L 3.6875 -1.234375 L 8.28125 -0.203125 L 7.84375 1.75 L 1.171875 0.265625 Z M 3.4375 -9.859375 "/></g></g></g><g fill="#000000" fill-opacity="1"><g transform="translate(182.464354, 270.681631)"><g><path d="M 1.25 -10.375 L 3.390625 -10.359375 L 3.359375 -2.03125 L 7.796875 -2.015625 L 7.78125 0.03125 L 1.203125 0 Z M 1.25 -10.375 "/></g></g></g><g fill="#000000" fill-opacity="1"><g transform="translate(200.046375, 269.867472)"><g><path d="M -0.640625 -5.171875 C -0.804688 -5.890625 -0.820312 -6.597656 -0.6875 -7.296875 C -0.550781 -7.992188 -0.300781 -8.640625 0.0625 -9.234375 C 0.425781 -9.828125 0.894531 -10.328125 1.46875 -10.734375 C 2.050781 -11.148438 2.703125 -11.441406 3.421875 -11.609375 C 4.148438 -11.785156 4.859375 -11.816406 5.546875 -11.703125 C 6.242188 -11.585938 6.882812 -11.347656 7.46875 -10.984375 C 8.050781 -10.628906 8.550781 -10.164062 8.96875 -9.59375 C 9.394531 -9.03125 9.691406 -8.390625 9.859375 -7.671875 C 10.023438 -6.941406 10.046875 -6.222656 9.921875 -5.515625 C 9.796875 -4.816406 9.546875 -4.171875 9.171875 -3.578125 C 8.804688 -2.984375 8.332031 -2.476562 7.75 -2.0625 C 7.175781 -1.65625 6.53125 -1.367188 5.8125 -1.203125 C 5.09375 -1.023438 4.382812 -0.992188 3.6875 -1.109375 C 2.988281 -1.234375 2.347656 -1.476562 1.765625 -1.84375 C 1.179688 -2.207031 0.675781 -2.664062 0.25 -3.21875 C -0.164062 -3.78125 -0.460938 -4.429688 -0.640625 -5.171875 Z M 1.5 -5.671875 C 1.632812 -5.109375 1.898438 -4.613281 2.296875 -4.1875 C 2.691406 -3.769531 3.15625 -3.472656 3.6875 -3.296875 C 4.226562 -3.117188 4.789062 -3.097656 5.375 -3.234375 C 5.945312 -3.367188 6.4375 -3.632812 6.84375 -4.03125 C 7.25 -4.425781 7.53125 -4.898438 7.6875 -5.453125 C 7.851562 -6.003906 7.867188 -6.5625 7.734375 -7.125 C 7.597656 -7.71875 7.335938 -8.21875 6.953125 -8.625 C 6.566406 -9.039062 6.101562 -9.335938 5.5625 -9.515625 C 5.019531 -9.703125 4.460938 -9.726562 3.890625 -9.59375 C 3.304688 -9.457031 2.8125 -9.1875 2.40625 -8.78125 C 2.007812 -8.382812 1.722656 -7.914062 1.546875 -7.375 C 1.378906 -6.832031 1.363281 -6.265625 1.5 -5.671875 Z M 1.5 -5.671875 "/></g></g></g><g fill="#000000" fill-opacity="1"><g transform="translate(220.651545, 263.680046)"><g><path d="M 4.609375 -10.265625 C 4.953125 -9.585938 5.09375 -8.945312 5.03125 -8.34375 C 4.96875 -7.75 4.738281 -7.207031 4.34375 -6.71875 C 3.945312 -6.238281 3.425781 -5.835938 2.78125 -5.515625 L 1.34375 -4.78125 L 3 -1.53125 L 1.078125 -0.546875 L -3.640625 -9.78125 L -0.203125 -11.53125 C 0.410156 -11.851562 1.023438 -12.03125 1.640625 -12.0625 C 2.253906 -12.101562 2.816406 -11.976562 3.328125 -11.6875 C 3.847656 -11.394531 4.273438 -10.921875 4.609375 -10.265625 Z M 2.703125 -9.234375 C 2.554688 -9.535156 2.363281 -9.734375 2.125 -9.828125 C 1.882812 -9.929688 1.628906 -9.960938 1.359375 -9.921875 C 1.085938 -9.878906 0.816406 -9.789062 0.546875 -9.65625 L -0.796875 -8.96875 L 0.421875 -6.5625 L 1.78125 -7.25 C 2.03125 -7.382812 2.253906 -7.550781 2.453125 -7.75 C 2.648438 -7.957031 2.773438 -8.179688 2.828125 -8.421875 C 2.890625 -8.671875 2.847656 -8.941406 2.703125 -9.234375 Z M 2.703125 -9.234375 "/></g></g></g><g fill="#000000" fill-opacity="1"><g transform="translate(236.777837, 254.240726)"><g><path d="M -5.71875 -8.734375 L -0.484375 -13.09375 L 0.8125 -11.546875 L -2.78125 -8.546875 L -1.4375 -6.921875 L 1.78125 -9.609375 L 3.078125 -8.0625 L -0.140625 -5.375 L 1.28125 -3.65625 L 4.890625 -6.671875 L 6.171875 -5.140625 L 0.921875 -0.765625 Z M -5.71875 -8.734375 "/></g></g></g><g fill="#000000" fill-opacity="1"><g transform="translate(250.184819, 241.751075)"><g><path d="M 5.5625 -7.3125 L 4.125 -5.40625 L -0.125 -5.953125 L -0.921875 -4.921875 L 2.03125 -2.671875 L 0.734375 -0.953125 L -7.515625 -7.25 L -5.03125 -10.515625 C -4.625 -11.046875 -4.15625 -11.457031 -3.625 -11.75 C -3.09375 -12.039062 -2.535156 -12.171875 -1.953125 -12.140625 C -1.367188 -12.117188 -0.785156 -11.882812 -0.203125 -11.4375 C 0.992188 -10.519531 1.375 -9.335938 0.9375 -7.890625 Z M -1.421875 -7.546875 C -1.253906 -7.753906 -1.128906 -7.988281 -1.046875 -8.25 C -0.960938 -8.507812 -0.945312 -8.765625 -1 -9.015625 C -1.0625 -9.265625 -1.222656 -9.484375 -1.484375 -9.671875 C -1.742188 -9.878906 -2 -9.972656 -2.25 -9.953125 C -2.507812 -9.941406 -2.742188 -9.859375 -2.953125 -9.703125 C -3.171875 -9.546875 -3.363281 -9.359375 -3.53125 -9.140625 L -4.609375 -7.734375 L -2.5 -6.125 Z M -1.421875 -7.546875 "/></g></g></g><g fill="#000000" fill-opacity="1"><g transform="translate(204.254502, 206.464903)"><g><path d="M 11.046875 -39.734375 L 11.046875 -5.171875 L 31.265625 -5.171875 L 31.265625 0 L 5.71875 0 L 5.71875 -39.734375 Z M 11.046875 -39.734375 "/></g></g></g><g fill="#000000" fill-opacity="1"><g transform="translate(133.848905, 206.464903)"><g><path d="M 10.546875 -14.0625 C 10.546875 -12.3125 10.96875 -10.726562 11.8125 -9.3125 C 12.65625 -7.90625 13.800781 -6.785156 15.25 -5.953125 C 16.695312 -5.128906 18.300781 -4.71875 20.0625 -4.71875 C 21.894531 -4.71875 23.550781 -5.117188 25.03125 -5.921875 C 26.507812 -6.734375 27.671875 -7.851562 28.515625 -9.28125 C 29.359375 -10.71875 29.78125 -12.3125 29.78125 -14.0625 L 29.78125 -39.734375 L 35 -39.734375 L 35 -13.90625 C 35 -11.082031 34.335938 -8.578125 33.015625 -6.390625 C 31.703125 -4.210938 29.910156 -2.53125 27.640625 -1.34375 C 25.367188 -0.15625 22.84375 0.4375 20.0625 0.4375 C 17.3125 0.4375 14.800781 -0.15625 12.53125 -1.34375 C 10.257812 -2.53125 8.472656 -4.210938 7.171875 -6.390625 C 5.867188 -8.578125 5.21875 -11.082031 5.21875 -13.90625 L 5.21875 -39.734375 L 10.546875 -39.734375 Z M 10.546875 -14.0625 "/></g></g></g><path stroke-linecap="butt" transform="matrix(0, -0.75, 0.75, 0, 186.746858, 231.803538)" fill="none" stroke-linejoin="miter" d="M -0.00153216 0.998981 L 118.149517 0.998981 " stroke="#000000" stroke-width="2" stroke-opacity="1" stroke-miterlimit="4"/></svg>